<?xml version="1.0" encoding="utf-8"?>
<!-- Generator: Adobe Illustrator 22.0.1, SVG Export Plug-In . SVG Version: 6.00 Build 0)  -->
<svg version="1.1" id="instagram" xmlns="http://www.w3.org/2000/svg" xmlns:xlink="http://www.w3.org/1999/xlink" x="0px" y="0px"
	 viewBox="0 0 24 24" style="enable-background:new 0 0 24 24;" xml:space="preserve">
<style type="text/css">
	.st0{fill:#053B86;}
</style>
<g>
	<path class="st0" d="M12,6.9c-2.8,0-5.1,2.3-5.1,5.1s2.3,5.1,5.1,5.1s5.1-2.3,5.1-5.1C17.1,9.2,14.8,6.9,12,6.9
		C12,6.9,12,6.9,12,6.9z M12,15.3c-1.8,0-3.3-1.5-3.3-3.3s1.5-3.3,3.3-3.3s3.3,1.5,3.3,3.3c0,0,0,0,0,0C15.3,13.8,13.8,15.3,12,15.3
		C12,15.3,12,15.3,12,15.3z"/>
	<path class="st0" d="M21.9,7.9c0-0.8-0.2-1.7-0.5-2.4c-0.3-0.7-0.6-1.3-1.2-1.8c-0.5-0.5-1.1-0.9-1.8-1.2c-0.8-0.3-1.6-0.4-2.4-0.5
		C15.1,2,14.7,2,12,2S8.9,2,7.9,2.1C7,2.1,6.2,2.2,5.5,2.5C4.8,2.8,4.2,3.2,3.7,3.7C3.2,4.2,2.8,4.8,2.5,5.4C2.2,6.2,2.1,7,2.1,7.9
		C2,8.9,2,9.3,2,12s0,3.1,0.1,4.1c0,0.8,0.2,1.7,0.5,2.4c0.3,0.7,0.6,1.3,1.2,1.8c0.5,0.5,1.1,0.9,1.8,1.2c0.8,0.3,1.6,0.4,2.4,0.5
		C8.9,22,9.3,22,12,22s3.1,0,4.1-0.1c0.8,0,1.7-0.2,2.4-0.5c1.3-0.5,2.4-1.6,2.9-2.9c0.3-0.8,0.4-1.6,0.5-2.4c0-1.1,0.1-1.4,0.1-4.1
		S22,8.9,21.9,7.9z M20.1,16c0,0.6-0.1,1.3-0.3,1.9c-0.3,0.9-1,1.6-1.9,1.9c-0.6,0.2-1.2,0.3-1.9,0.3c-1.1,0-1.4,0.1-4,0.1
		s-3,0-4-0.1c-0.6,0-1.3-0.1-1.9-0.3C5.7,19.6,5.3,19.4,5,19c-0.3-0.3-0.6-0.7-0.7-1.1C4,17.3,3.9,16.7,3.9,16c0-1.1-0.1-1.4-0.1-4
		s0-3,0.1-4c0-0.6,0.1-1.3,0.3-1.9C4.4,5.7,4.6,5.3,5,5c0.3-0.3,0.7-0.6,1.2-0.7C6.7,4,7.3,3.9,8,3.9c1.1,0,1.4-0.1,4-0.1s3,0,4,0.1
		c0.6,0,1.3,0.1,1.9,0.3c0.9,0.3,1.6,1,1.9,1.9C20,6.7,20.1,7.3,20.1,8c0,1.1,0.1,1.4,0.1,4S20.2,15,20.1,16L20.1,16z"/>
	<path class="st0" d="M17.3,5.5L17.3,5.5c-0.7,0-1.2,0.5-1.2,1.2s0.5,1.2,1.2,1.2s1.2-0.5,1.2-1.2C18.5,6,18,5.5,17.3,5.5z"/>
</g>
</svg>
